# xmcd
#
# Track frame offsets:
#	150
#	9212
#	26665
#	37945
#	54362
#	66530
#	75742
#	85275
#	96467
#	108592
#	119580
#	132135
#	144987
#	154915
#	164580
#	176197
#	187317
#	200427
#	216567
#	226635
#
# Disc length: 3180
#
# Revision: 1
# Processed by: cddbd v1.5.1PL0 Copyright (c) Steve Scherf et al.
# Submitted via: dBpowerAMP V4.0
# Normalized: r0:TDELIM( - )
#
DISCID=210c6a14
DTITLE=Various Artist - All-Time Country Hall of Fame
DYEAR=1900
DGENRE=Country
TTITLE0=Jerry Lee Lewis - Jambalaya
TTITLE1=Bobby Bare - Sylvia's MOther
TTITLE2=Tammy Wynnette - Stand By Your Man (Live)
TTITLE3=Roy Clark - The She's A Lover
TTITLE4=Johnny Cash - I Walk The Line
TTITLE5=Patsy Cline - I Love You, Honey
TTITLE6=Hank Locklin - Geisha Girl
TTITLE7=Buck Owens - Above and Beyond
TTITLE8=Jeannie C. Riley - There Never Was A Time
TTITLE9=Jimmy C. Newman - Allons A Lafayette
TTITLE10=Glen Campbell - Rhinestone Cowboy
TTITLE11=Conway Twitty - Crazy Dreams
TTITLE12=Billie Jo Spears - My Arms Stay Open Late
TTITLE13=Ned Miller - From A Jack To A King
TTITLE14=Roger Miller - Little Green Apples
TTITLE15=Skeeter Davis - My Last Date With You
TTITLE16=Kenny Rogers - Ruby, Don't Take Your Love To Town
TTITLE17=Johnny Cash - A Boy Named Sue
TTITLE18=Patti Page - A Poor Man's Roses
TTITLE19=Waylon Jennings - Don't Think Twice
EXTD=
EXTT0=
EXTT1=
EXTT2=
EXTT3=
EXTT4=
EXTT5=
EXTT6=
EXTT7=
EXTT8=
EXTT9=
EXTT10=
EXTT11=
EXTT12=
EXTT13=
EXTT14=
EXTT15=
EXTT16=
EXTT17=
EXTT18=
EXTT19=
PLAYORDER=
